<svg width="59" height="58" viewBox="0 0 59 58" fill="none" xmlns="http://www.w3.org/2000/svg">
<circle cx="29.125" cy="29" r="29" fill="white"/>
<path d="M19 19C19 17.9391 19.4214 16.9217 20.1716 16.1716C20.9217 15.4214 21.9391 15 23 15C24.0609 15 25.0783 15.4214 25.8284 16.1716C26.5786 16.9217 27 17.9391 27 19C27 20.0609 26.5786 21.0783 25.8284 21.8284C25.0783 22.5786 24.0609 23 23 23C21.9391 23 20.9217 22.5786 20.1716 21.8284C19.4214 21.0783 19 20.0609 19 19ZM23 17C22.4696 17 21.9609 17.2107 21.5858 17.5858C21.2107 17.9609 21 18.4696 21 19C21 19.5304 21.2107 20.0391 21.5858 20.4142C21.9609 20.7893 22.4696 21 23 21C23.5304 21 24.0391 20.7893 24.4142 20.4142C24.7893 20.0391 25 19.5304 25 19C25 18.4696 24.7893 17.9609 24.4142 17.5858C24.0391 17.2107 23.5304 17 23 17ZM32.558 22.168C32.139 21.8484 31.7873 21.4491 31.523 20.9932C31.2588 20.5372 31.0873 20.0335 31.0183 19.511C30.9494 18.9886 30.9843 18.4576 31.1212 17.9487C31.2581 17.4398 31.4941 16.963 31.8159 16.5456C32.1376 16.1282 32.5387 15.7785 32.996 15.5166C33.4533 15.2547 33.9578 15.0857 34.4806 15.0194C35.0034 14.9531 35.5342 14.9907 36.0424 15.1302C36.5506 15.2697 37.0263 15.5082 37.442 15.832C38.2606 16.4868 38.7894 17.4368 38.9147 18.4775C39.04 19.5183 38.7517 20.5666 38.1119 21.397C37.4721 22.2274 36.5319 22.7734 35.4936 22.9176C34.4553 23.0618 33.4019 22.7926 32.56 22.168H32.558ZM35 17C34.4696 17 33.9609 17.2107 33.5858 17.5858C33.2107 17.9609 33 18.4696 33 19C33 19.5304 33.2107 20.0391 33.5858 20.4142C33.9609 20.7893 34.4696 21 35 21C35.5304 21 36.0391 20.7893 36.4142 20.4142C36.7893 20.0391 37 19.5304 37 19C37 18.4696 36.7893 17.9609 36.4142 17.5858C36.0391 17.2107 35.5304 17 35 17ZM18 25H23.34C23.12 25.626 23 26.3 23 27H18C17.7348 27 17.4804 27.1054 17.2929 27.2929C17.1054 27.4804 17 27.7348 17 28C17 29.634 17.65 30.846 18.676 31.67C19.148 32.05 19.714 32.356 20.354 32.58C19.884 33.0796 19.5218 33.6705 19.29 34.316C18.6187 34.0463 17.9901 33.6805 17.424 33.23C15.92 32.02 15 30.232 15 28C15 27.2044 15.3161 26.4413 15.8787 25.8787C16.4413 25.3161 17.2044 25 18 25ZM25.536 25C25.0056 25.9192 24.862 27.0115 25.137 28.0366C25.4119 29.0617 26.0828 29.9356 27.002 30.466C27.9212 30.9964 29.0135 31.14 30.0386 30.865C31.0637 30.5901 31.9376 29.9192 32.468 29C32.9984 28.0808 33.142 26.9885 32.867 25.9634C32.5921 24.9383 31.9212 24.0644 31.002 23.534C30.0828 23.0036 28.9905 22.86 27.9654 23.135C26.9403 23.4099 26.0664 24.0808 25.536 25ZM28.552 25.05C28.845 24.9838 29.1492 24.9843 29.442 25.0514C29.7349 25.1185 30.0089 25.2505 30.2439 25.4377C30.4788 25.6248 30.6688 25.8624 30.7997 26.1328C30.9305 26.4032 30.999 26.6996 31 27C30.9998 27.3763 30.8935 27.7449 30.6933 28.0635C30.493 28.3821 30.2069 28.6378 29.8679 28.8011C29.5289 28.9644 29.1506 29.0287 28.7767 28.9867C28.4027 28.9447 28.0482 28.798 27.7539 28.5635C27.4595 28.3291 27.2373 28.0163 27.1128 27.6612C26.9882 27.3061 26.9663 26.9231 27.0497 26.5562C27.133 26.1892 27.3182 25.8532 27.584 25.5868C27.8497 25.3203 28.1853 25.1343 28.552 25.05ZM39.324 31.67C38.852 32.05 38.286 32.356 37.646 32.58C38.1153 33.0797 38.4768 33.6707 38.708 34.316C39.388 34.038 40.018 33.676 40.576 33.23C42.08 32.02 43 30.232 43 28C43 27.2044 42.6839 26.4413 42.1213 25.8787C41.5587 25.3161 40.7956 25 40 25H34.66C34.88 25.626 35 26.3 35 27H40C40.2652 27 40.5196 27.1054 40.7071 27.2929C40.8946 27.4804 41 27.7348 41 28C41 29.634 40.35 30.846 39.324 31.67ZM34 33C34.7956 33 35.5587 33.3161 36.1213 33.8787C36.6839 34.4413 37 35.2044 37 36C37 38.232 36.082 40.02 34.576 41.23C33.094 42.42 31.106 43 29 43C26.894 43 24.906 42.42 23.424 41.23C21.92 40.02 21 38.232 21 36C20.9989 35.6057 21.0758 35.2152 21.2262 34.8507C21.3766 34.4863 21.5975 34.1551 21.8763 33.8763C22.1551 33.5975 22.4862 33.3766 22.8507 33.2262C23.2152 33.0758 23.6057 32.9989 24 33H34ZM34 35H24C23.7348 35 23.4804 35.1054 23.2929 35.2929C23.1054 35.4804 23 35.7348 23 36C23 37.634 23.65 38.846 24.676 39.67C25.728 40.514 27.24 41 29 41C30.76 41 32.272 40.514 33.324 39.67C34.35 38.846 35 37.634 35 36C35 35.7348 34.8946 35.4804 34.7071 35.2929C34.5196 35.1054 34.2652 35 34 35Z" fill="#FE6902"/>
</svg>
