<svg width="59" height="58" viewBox="0 0 59 58" fill="none" xmlns="http://www.w3.org/2000/svg">
<circle cx="29.125" cy="29" r="29" fill="white"/>
<path d="M36.3379 31.7314C36.2504 31.9383 36.1039 32.1148 35.9167 32.2388C35.7295 32.3629 35.5099 32.4291 35.2853 32.4291C35.0608 32.4291 34.8412 32.3629 34.654 32.2388C34.4668 32.1148 34.3203 31.9383 34.2328 31.7314L27.9471 16.8743C27.8885 16.7361 27.8578 16.5877 27.8566 16.4376C27.8554 16.2875 27.8838 16.1386 27.9402 15.9995C28.054 15.7185 28.2748 15.4942 28.5539 15.376C28.8331 15.2578 29.1478 15.2553 29.4287 15.3691C29.7097 15.4829 29.934 15.7037 30.0522 15.9829L35.2865 28.3531L40.5173 15.9829C40.6368 15.7058 40.861 15.4872 41.141 15.3748C41.421 15.2624 41.7341 15.2652 42.012 15.3828C42.2899 15.5003 42.51 15.7229 42.6244 16.0021C42.7387 16.2813 42.7381 16.5944 42.6225 16.8731L36.3368 31.7303L36.3379 31.7314ZM22.7151 15.2857C22.9394 15.2859 23.1587 15.3521 23.3457 15.4761C23.5327 15.6 23.679 15.7763 23.7665 15.9829L30.0522 30.84C30.1704 31.1192 30.1729 31.4338 30.0591 31.7148C29.9453 31.9958 29.7245 32.2201 29.4453 32.3383C29.1662 32.4565 28.8515 32.459 28.5705 32.3452C28.2895 32.2314 28.0653 32.0106 27.9471 31.7314L26.3093 27.8606H19.1185L17.4808 31.7314C17.4222 31.8697 17.3371 31.995 17.2301 32.1003C17.1231 32.2056 16.9964 32.2888 16.8573 32.3452C16.7182 32.4015 16.5693 32.4299 16.4192 32.4287C16.2691 32.4276 16.1207 32.3968 15.9825 32.3383C15.8443 32.2798 15.7189 32.1946 15.6136 32.0876C15.5083 31.9806 15.4251 31.854 15.3688 31.7148C15.3124 31.5757 15.284 31.4268 15.2852 31.2767C15.2864 31.1266 15.3171 30.9782 15.3756 30.84L21.6614 15.9829C21.7489 15.7761 21.8954 15.5997 22.0826 15.4758C22.2698 15.3518 22.4894 15.2857 22.7139 15.2857H22.7151ZM20.0865 25.5749H25.3436L22.7139 19.3623L20.0854 25.5749H20.0865ZM37.2648 35.1257C37.3609 35.0103 37.4788 34.915 37.6117 34.8452C37.7447 34.7754 37.8901 34.7325 38.0396 34.7189C38.1891 34.7053 38.3399 34.7213 38.4833 34.766C38.6266 34.8107 38.7598 34.8832 38.8751 34.9794L42.3036 37.8366C42.4324 37.9438 42.5361 38.0781 42.6072 38.2299C42.6784 38.3817 42.7152 38.5472 42.7152 38.7149C42.7152 38.8825 42.6784 39.048 42.6072 39.1998C42.5361 39.3516 42.4324 39.4859 42.3036 39.5931L38.8751 42.4503C38.6421 42.6443 38.3417 42.7378 38.0398 42.7102C37.7379 42.6827 37.4593 42.5364 37.2653 42.3034C37.0714 42.0705 36.9778 41.77 37.0054 41.4682C37.0329 41.1663 37.1793 40.8877 37.4122 40.6937L38.4145 39.8571H19.5848L20.5882 40.6937C20.7035 40.7898 20.7988 40.9076 20.8686 41.0405C20.9384 41.1734 20.9814 41.3187 20.995 41.4682C21.0087 41.6176 20.9927 41.7683 20.9481 41.9116C20.9035 42.055 20.8311 42.1881 20.7351 42.3034C20.639 42.4188 20.5212 42.5141 20.3883 42.5839C20.2554 42.6537 20.1101 42.6966 19.9606 42.7102C19.8111 42.7239 19.6604 42.7079 19.5171 42.6633C19.3738 42.6187 19.2407 42.5463 19.1254 42.4503L15.6968 39.5931C15.568 39.4859 15.4643 39.3516 15.3932 39.1998C15.3221 39.048 15.2852 38.8825 15.2852 38.7149C15.2852 38.5472 15.3221 38.3817 15.3932 38.2299C15.4643 38.0781 15.568 37.9438 15.6968 37.8366L19.1254 34.9794C19.2407 34.8834 19.3738 34.811 19.5171 34.7664C19.6604 34.7218 19.8111 34.7058 19.9606 34.7195C20.1101 34.7331 20.2554 34.7761 20.3883 34.8459C20.5212 34.9157 20.639 35.0109 20.7351 35.1263C20.8311 35.2416 20.9035 35.3748 20.9481 35.5181C20.9927 35.6614 21.0087 35.8121 20.995 35.9616C20.9814 36.111 20.9384 36.2564 20.8686 36.3892C20.7988 36.5221 20.7035 36.6399 20.5882 36.736L19.5848 37.5714H38.4145L37.4111 36.7349C37.1784 36.5408 37.0322 36.2623 37.0048 35.9606C36.9774 35.6588 37.0709 35.3585 37.2648 35.1257Z" fill="#FE6902"/>
</svg>
