<svg width="34" height="34" viewBox="0 0 34 34" fill="none" xmlns="http://www.w3.org/2000/svg">
<path d="M5.6665 7.08317C5.6665 6.70745 5.81576 6.34711 6.08144 6.08144C6.34711 5.81576 6.70745 5.6665 7.08317 5.6665H12.7498C13.1256 5.6665 13.4859 5.81576 13.7516 6.08144C14.0172 6.34711 14.1665 6.70745 14.1665 7.08317V14.1665C14.1665 14.5422 14.0172 14.9026 13.7516 15.1682C13.4859 15.4339 13.1256 15.5832 12.7498 15.5832H7.08317C6.70745 15.5832 6.34711 15.4339 6.08144 15.1682C5.81576 14.9026 5.6665 14.5422 5.6665 14.1665V7.08317ZM19.8332 7.08317C19.8332 6.70745 19.9824 6.34711 20.2481 6.08144C20.5138 5.81576 20.8741 5.6665 21.2498 5.6665H26.9165C27.2922 5.6665 27.6526 5.81576 27.9182 6.08144C28.1839 6.34711 28.3332 6.70745 28.3332 7.08317V9.9165C28.3332 10.2922 28.1839 10.6526 27.9182 10.9182C27.6526 11.1839 27.2922 11.3332 26.9165 11.3332H21.2498C20.8741 11.3332 20.5138 11.1839 20.2481 10.9182C19.9824 10.6526 19.8332 10.2922 19.8332 9.9165V7.08317ZM5.6665 22.6665C5.6665 22.2908 5.81576 21.9304 6.08144 21.6648C6.34711 21.3991 6.70745 21.2498 7.08317 21.2498H12.7498C13.1256 21.2498 13.4859 21.3991 13.7516 21.6648C14.0172 21.9304 14.1665 22.2908 14.1665 22.6665V26.9165C14.1665 27.2922 14.0172 27.6526 13.7516 27.9182C13.4859 28.1839 13.1256 28.3332 12.7498 28.3332H7.08317C6.70745 28.3332 6.34711 28.1839 6.08144 27.9182C5.81576 27.6526 5.6665 27.2922 5.6665 26.9165V22.6665ZM19.8332 18.4165C19.8332 18.0408 19.9824 17.6804 20.2481 17.4148C20.5138 17.1491 20.8741 16.9998 21.2498 16.9998H26.9165C27.2922 16.9998 27.6526 17.1491 27.9182 17.4148C28.1839 17.6804 28.3332 18.0408 28.3332 18.4165V26.9165C28.3332 27.2922 28.1839 27.6526 27.9182 27.9182C27.6526 28.1839 27.2922 28.3332 26.9165 28.3332H21.2498C20.8741 28.3332 20.5138 28.1839 20.2481 27.9182C19.9824 27.6526 19.8332 27.2922 19.8332 26.9165V18.4165Z" stroke="white" stroke-width="4"/>
<path d="M7.9165 13.3332V7.9165H11.9165V13.3332H7.9165ZM22.0832 9.08317V7.9165H26.0832V9.08317H22.0832ZM7.9165 26.0832V23.4998H11.9165V26.0832H7.9165ZM22.0832 26.0832V19.2498H26.0832V26.0832H22.0832Z" stroke="#192022" stroke-width="4.5"/>
</svg>
