<svg width="42" height="42" viewBox="0 0 42 42" fill="none" xmlns="http://www.w3.org/2000/svg">
<g clip-path="url(#clip0_285_263)">
<path d="M14.6311 1.38138C10.4346 2.83717 6.81562 5.60031 4.30562 9.26492C1.79562 12.9295 0.526938 17.3025 0.685917 21.7414C0.844897 26.1804 2.42316 30.4513 5.18889 33.927C7.95462 37.4027 11.762 39.8998 16.0519 41.0517C19.5297 41.9491 23.1735 41.9885 26.67 41.1665C29.8374 40.4551 32.7658 38.9332 35.1684 36.75C37.669 34.4083 39.4841 31.4294 40.4184 28.1334C41.4337 24.5491 41.6144 20.7799 40.9467 17.115H21.4167V25.2164H32.7272C32.5011 26.5085 32.0167 27.7417 31.303 28.8423C30.5892 29.9428 29.6607 30.888 28.5731 31.6214C27.1922 32.5353 25.6352 33.1501 24.0023 33.4261C22.3648 33.7306 20.6852 33.7306 19.0477 33.4261C17.3878 33.0833 15.8177 32.3983 14.4375 31.4147C12.2199 29.8449 10.5547 27.6147 9.67968 25.0425C8.7901 22.422 8.7901 19.5812 9.67968 16.9608C10.3026 15.124 11.3322 13.4516 12.6919 12.0684C14.2478 10.4565 16.2177 9.30428 18.3854 8.7382C20.553 8.17211 22.8347 8.21403 24.9802 8.85935C26.6562 9.3736 28.1889 10.2725 29.4558 11.4844C30.7311 10.2156 32.0042 8.94357 33.2752 7.66826C33.9314 6.98248 34.6467 6.32951 35.2931 5.62732C33.3589 3.82762 31.0887 2.42713 28.6125 1.50607C24.1031 -0.131305 19.169 -0.175308 14.6311 1.38138Z" fill="white"/>
<path d="M14.631 1.38103C19.1685 -0.176724 24.1026 -0.13388 28.6124 1.50243C31.0891 2.42975 33.3582 3.83698 35.2897 5.64337C34.6335 6.34556 33.9411 7.00181 33.2718 7.68431C31.9986 8.95524 30.7266 10.2218 29.4557 11.484C28.1888 10.2722 26.6561 9.37324 24.98 8.85899C22.8353 8.21141 20.5537 8.16707 18.3855 8.73084C16.2172 9.2946 14.2461 10.4447 12.6885 12.0549C11.3288 13.4381 10.2992 15.1105 9.6763 16.9473L2.87427 11.6809C5.30898 6.85271 9.52454 3.15954 14.631 1.38103Z" fill="#E33629"/>
<path d="M1.06971 16.8988C1.43504 15.0868 2.04203 13.3321 2.87439 11.6816L9.67643 16.9612C8.78684 19.5816 8.78684 22.4224 9.67643 25.0429C7.41018 26.7929 5.14283 28.5516 2.87439 30.3191C0.791296 26.1727 0.155986 21.4483 1.06971 16.8988Z" fill="#F8BD00"/>
<path d="M21.4167 17.1113H40.9467C41.6144 20.7763 41.4337 24.5455 40.4185 28.1298C39.4841 31.4257 37.669 34.4047 35.1685 36.7463C32.9733 35.0335 30.7683 33.3338 28.5731 31.621C29.6615 30.8869 30.5904 29.9407 31.3042 28.839C32.018 27.7372 32.502 26.5027 32.7272 25.2095H21.4167C21.4135 22.5123 21.4167 19.8118 21.4167 17.1113Z" fill="#587DBD"/>
<path d="M2.87109 30.3192C5.13953 28.5692 7.40687 26.8105 9.67312 25.043C10.5499 27.6161 12.2174 29.8464 14.4375 31.4152C15.822 32.3942 17.3955 33.0736 19.0575 33.4102C20.695 33.7147 22.3747 33.7147 24.0122 33.4102C25.645 33.1342 27.202 32.5194 28.583 31.6055C30.7781 33.3183 32.9831 35.018 35.1783 36.7308C32.776 38.9152 29.8476 40.4382 26.6798 41.1506C23.1834 41.9726 19.5396 41.9332 16.0617 41.0358C13.3111 40.3013 10.7417 39.0066 8.51484 37.2328C6.15801 35.3613 4.23293 33.003 2.87109 30.3192Z" fill="#319F43"/>
</g>
<defs>
<clipPath id="clip0_285_263">
<rect width="42" height="42" fill="white"/>
</clipPath>
</defs>
</svg>
