<svg width="59" height="58" viewBox="0 0 59 58" fill="none" xmlns="http://www.w3.org/2000/svg">
<circle cx="29.125" cy="29" r="29" fill="white"/>
<path d="M31.6667 28C30.2067 28 29 26.7933 29 25.3333C29 24.8613 29.1373 24.4227 29.3573 24.036C29.2373 24.0267 29.1227 24 29 24C27.9413 24.007 26.9279 24.4307 26.1793 25.1793C25.4307 25.9279 25.007 26.9413 25 28C25 30.1893 26.8107 32 29 32C31.188 32 33 30.1893 33 28C33 27.8773 32.9733 27.7627 32.964 27.6427C32.5773 27.8627 32.1387 28 31.6667 28Z" fill="#FE6902"/>
<path d="M29.0001 18.6667C18.8227 18.6667 15.7641 27.4893 15.7361 27.5787L15.5947 28L15.7347 28.4213C15.7641 28.5107 18.8227 37.3333 29.0001 37.3333C39.1774 37.3333 42.2361 28.5107 42.2641 28.4213L42.4054 28L42.2654 27.5787C42.2361 27.4893 39.1774 18.6667 29.0001 18.6667ZM29.0001 34.6667C21.8654 34.6667 19.1014 29.5387 18.4321 28C19.1041 26.456 21.8694 21.3333 29.0001 21.3333C36.1347 21.3333 38.8987 26.4613 39.5681 28C38.8961 29.544 36.1307 34.6667 29.0001 34.6667Z" fill="#FE6902"/>
</svg>
