<svg width="72" height="73" viewBox="0 0 72 73" fill="none" xmlns="http://www.w3.org/2000/svg">
<path d="M36 9.5C21.0878 9.5 9 21.5878 9 36.5C9 51.4122 21.0878 63.5 36 63.5C50.9122 63.5 63 51.4122 63 36.5C63 21.5897 50.9122 9.50184 36 9.5ZM48.3826 48.4404C47.8981 49.2363 46.8608 49.4851 46.0686 49.0005C39.729 45.126 31.7478 44.2509 22.3498 46.3972C21.4434 46.6054 20.5406 46.038 20.3343 45.1315C20.1261 44.2251 20.6917 43.3223 21.6 43.116C31.8841 40.7669 40.7073 41.7784 47.8244 46.1264C48.6166 46.6146 48.869 47.6482 48.3826 48.4404ZM51.686 41.0912C51.0761 42.0824 49.7791 42.3919 48.7898 41.7839C41.5345 37.3235 30.4692 36.032 21.8856 38.6372C20.7728 38.9743 19.5973 38.3461 19.2583 37.2351C18.923 36.1223 19.5513 34.9487 20.6622 34.6097C30.4673 31.6343 42.6583 33.075 50.9914 38.1968C51.9826 38.8067 52.2958 40.1018 51.686 41.0912ZM51.9697 33.4343C43.2663 28.2664 28.9105 27.7911 20.6014 30.3115C19.2676 30.7168 17.8563 29.9633 17.4528 28.6294C17.0493 27.2955 17.801 25.8842 19.1367 25.4789C28.6747 22.5845 44.5284 23.1428 54.5472 29.09C55.7466 29.803 56.1408 31.3524 55.4297 32.5499C54.7204 33.7512 53.1672 34.1473 51.9697 33.4343Z" fill="#2EBD59"/>
</svg>
