<svg width="59" height="58" viewBox="0 0 59 58" fill="none" xmlns="http://www.w3.org/2000/svg">
<circle cx="29.125" cy="29" r="29" fill="white"/>
<g clip-path="url(#clip0_536_4336)">
<path d="M29 43C25.287 43 21.726 41.525 19.1005 38.8995C16.475 36.274 15 32.713 15 29C15 25.287 16.475 21.726 19.1005 19.1005C21.726 16.475 25.287 15 29 15C32.713 15 36.274 16.475 38.8995 19.1005C41.525 21.726 43 25.287 43 29C43 32.713 41.525 36.274 38.8995 38.8995C36.274 41.525 32.713 43 29 43ZM29 45C33.2435 45 37.3131 43.3143 40.3137 40.3137C43.3143 37.3131 45 33.2435 45 29C45 24.7565 43.3143 20.6869 40.3137 17.6863C37.3131 14.6857 33.2435 13 29 13C24.7565 13 20.6869 14.6857 17.6863 17.6863C14.6857 20.6869 13 24.7565 13 29C13 33.2435 14.6857 37.3131 17.6863 40.3137C20.6869 43.3143 24.7565 45 29 45Z" fill="#FE6902"/>
<path d="M25.542 23.11C25.7056 23.0257 25.8892 22.9883 26.0727 23.0017C26.2562 23.0151 26.4324 23.0789 26.582 23.186L32 27.056V24C32 23.7348 32.1054 23.4804 32.2929 23.2929C32.4804 23.1053 32.7348 23 33 23C33.2652 23 33.5196 23.1053 33.7071 23.2929C33.8946 23.4804 34 23.7348 34 24V34C34 34.2652 33.8946 34.5195 33.7071 34.7071C33.5196 34.8946 33.2652 35 33 35C32.7348 35 32.4804 34.8946 32.2929 34.7071C32.1054 34.5195 32 34.2652 32 34V30.944L26.58 34.814C26.4305 34.9204 26.2545 34.9837 26.0714 34.9968C25.8884 35.0099 25.7052 34.9724 25.542 34.8883C25.3788 34.8042 25.242 34.6769 25.1464 34.5202C25.0507 34.3635 25.0001 34.1835 25 34V24C24.9998 23.8161 25.0503 23.6358 25.1459 23.4788C25.2415 23.3218 25.3786 23.1942 25.542 23.11Z" fill="#FE6902"/>
</g>
<defs>
<clipPath id="clip0_536_4336">
<rect width="32" height="32" fill="white" transform="translate(13 13)"/>
</clipPath>
</defs>
</svg>
