<svg width="148" height="148" viewBox="0 0 148 148" fill="none" xmlns="http://www.w3.org/2000/svg">
<g opacity="0.3">
<path d="M-0.0078125 0H3.99219V4H-0.0078125V0Z" fill="#C4C4C4"/>
<path d="M23.9922 0H27.9922V4H23.9922V0Z" fill="#C4C4C4"/>
<path d="M47.9922 0H51.9922V4H47.9922V0Z" fill="#C4C4C4"/>
<path d="M71.9922 0H75.9922V4H71.9922V0Z" fill="#C4C4C4"/>
<path d="M95.9922 0H99.9922V4H95.9922V0Z" fill="#C4C4C4"/>
<path d="M119.992 0H123.992V4H119.992V0Z" fill="#C4C4C4"/>
<path d="M143.992 0H147.992V4H143.992V0Z" fill="#C4C4C4"/>
<path d="M-0.0078125 24H3.99219V28H-0.0078125V24Z" fill="#C4C4C4"/>
<path d="M23.9922 24H27.9922V28H23.9922V24Z" fill="#C4C4C4"/>
<path d="M47.9922 24H51.9922V28H47.9922V24Z" fill="#C4C4C4"/>
<path d="M71.9922 24H75.9922V28H71.9922V24Z" fill="#C4C4C4"/>
<path d="M95.9922 24H99.9922V28H95.9922V24Z" fill="#C4C4C4"/>
<path d="M119.992 24H123.992V28H119.992V24Z" fill="#C4C4C4"/>
<path d="M143.992 24H147.992V28H143.992V24Z" fill="#C4C4C4"/>
<path d="M-0.0078125 48H3.99219V52H-0.0078125V48Z" fill="#C4C4C4"/>
<path d="M23.9922 48H27.9922V52H23.9922V48Z" fill="#C4C4C4"/>
<path d="M47.9922 48H51.9922V52H47.9922V48Z" fill="#C4C4C4"/>
<path d="M71.9922 48H75.9922V52H71.9922V48Z" fill="#C4C4C4"/>
<path d="M95.9922 48H99.9922V52H95.9922V48Z" fill="#C4C4C4"/>
<path d="M119.992 48H123.992V52H119.992V48Z" fill="#C4C4C4"/>
<path d="M143.992 48H147.992V52H143.992V48Z" fill="#C4C4C4"/>
<path d="M-0.0078125 72H3.99219V76H-0.0078125V72Z" fill="#C4C4C4"/>
<path d="M23.9922 72H27.9922V76H23.9922V72Z" fill="#C4C4C4"/>
<path d="M47.9922 72H51.9922V76H47.9922V72Z" fill="#C4C4C4"/>
<path d="M71.9922 72H75.9922V76H71.9922V72Z" fill="#C4C4C4"/>
<path d="M95.9922 72H99.9922V76H95.9922V72Z" fill="#C4C4C4"/>
<path d="M119.992 72H123.992V76H119.992V72Z" fill="#C4C4C4"/>
<path d="M143.992 72H147.992V76H143.992V72Z" fill="#C4C4C4"/>
<path d="M-0.0078125 96H3.99219V100H-0.0078125V96Z" fill="#C4C4C4"/>
<path d="M23.9922 96H27.9922V100H23.9922V96Z" fill="#C4C4C4"/>
<path d="M47.9922 96H51.9922V100H47.9922V96Z" fill="#C4C4C4"/>
<path d="M71.9922 96H75.9922V100H71.9922V96Z" fill="#C4C4C4"/>
<path d="M95.9922 96H99.9922V100H95.9922V96Z" fill="#C4C4C4"/>
<path d="M119.992 96H123.992V100H119.992V96Z" fill="#C4C4C4"/>
<path d="M143.992 96H147.992V100H143.992V96Z" fill="#C4C4C4"/>
<path d="M-0.0078125 120H3.99219V124H-0.0078125V120Z" fill="#C4C4C4"/>
<path d="M23.9922 120H27.9922V124H23.9922V120Z" fill="#C4C4C4"/>
<path d="M47.9922 120H51.9922V124H47.9922V120Z" fill="#C4C4C4"/>
<path d="M71.9922 120H75.9922V124H71.9922V120Z" fill="#C4C4C4"/>
<path d="M95.9922 120H99.9922V124H95.9922V120Z" fill="#C4C4C4"/>
<path d="M119.992 120H123.992V124H119.992V120Z" fill="#C4C4C4"/>
<path d="M143.992 120H147.992V124H143.992V120Z" fill="#C4C4C4"/>
<path d="M-0.0078125 144H3.99219V148H-0.0078125V144Z" fill="#C4C4C4"/>
<path d="M23.9922 144H27.9922V148H23.9922V144Z" fill="#C4C4C4"/>
<path d="M47.9922 144H51.9922V148H47.9922V144Z" fill="#C4C4C4"/>
<path d="M71.9922 144H75.9922V148H71.9922V144Z" fill="#C4C4C4"/>
<path d="M95.9922 144H99.9922V148H95.9922V144Z" fill="#C4C4C4"/>
<path d="M119.992 144H123.992V148H119.992V144Z" fill="#C4C4C4"/>
<path d="M143.992 144H147.992V148H143.992V144Z" fill="#C4C4C4"/>
</g>
</svg>
