<svg width="96" height="98" viewBox="0 0 96 98" fill="none" xmlns="http://www.w3.org/2000/svg">
<path d="M34.9093 -5.49289e-05C30.3249 -5.51289e-05 25.7855 0.901228 21.5501 2.65233C17.3148 4.40343 13.4664 6.97006 10.2248 10.2057C6.98321 13.4413 4.41182 17.2825 2.65747 21.5101C0.903124 25.7376 0.000177202 30.2687 0.000177002 34.8445L34.9093 34.8445L34.9093 -5.49289e-05Z" fill="#EB5757"/>
<path d="M61.0909 28.3109C56.5066 28.3109 51.9671 29.2121 47.7318 30.9632C43.4964 32.7143 39.6481 35.281 36.4065 38.5166C33.1648 41.7522 30.5935 45.5934 28.8391 49.821C27.0848 54.0485 26.1818 58.5796 26.1818 63.1554L61.0909 63.1554L61.0909 28.3109Z" fill="#FE6902"/>
</svg>
