<svg width="28" height="29" viewBox="0 0 28 29" fill="none" xmlns="http://www.w3.org/2000/svg">
<path d="M25.268 8.71705C25.0011 7.72576 24.2195 6.94417 23.2282 6.67728C21.4172 6.18164 14.1732 6.18164 14.1732 6.18164C14.1732 6.18164 6.92916 6.18164 5.11815 6.65822C4.14593 6.92511 3.34527 7.72576 3.07839 8.71705C2.60181 10.5281 2.60181 14.2835 2.60181 14.2835C2.60181 14.2835 2.60181 18.058 3.07839 19.85C3.34527 20.8413 4.12686 21.6229 5.11815 21.8897C6.94822 22.3854 14.1732 22.3854 14.1732 22.3854C14.1732 22.3854 21.4172 22.3854 23.2282 21.9088C24.2195 21.6419 25.0011 20.8603 25.268 19.869C25.7446 18.058 25.7446 14.3026 25.7446 14.3026C25.7446 14.3026 25.7636 10.5281 25.268 8.71705Z" fill="#FF0000"/>
<path d="M11.8667 17.6207L17.8907 14.1511L11.8667 10.6816V17.6207Z" fill="white"/>
</svg>
