<svg width="24" height="23" viewBox="0 0 24 23" fill="none" xmlns="http://www.w3.org/2000/svg">
<g clip-path="url(#clip0_1026_12199)">
<path d="M0.326416 7.77604C0.326416 5.06418 0.326416 3.70825 0.862542 2.67616C1.31433 1.80643 2.02347 1.09729 2.8932 0.645501C3.92529 0.109375 5.28122 0.109375 7.99308 0.109375H15.5169C18.2288 0.109375 19.5847 0.109375 20.6168 0.645501C21.4865 1.09729 22.1956 1.80643 22.6474 2.67616C23.1836 3.70825 23.1836 5.06418 23.1836 7.77604V15.2999C23.1836 18.0117 23.1836 19.3676 22.6474 20.3997C22.1956 21.2695 21.4865 21.9786 20.6168 22.4304C19.5847 22.9665 18.2288 22.9665 15.5169 22.9665H7.99308C5.28122 22.9665 3.92529 22.9665 2.8932 22.4304C2.02347 21.9786 1.31433 21.2695 0.862542 20.3997C0.326416 19.3676 0.326416 18.0117 0.326416 15.2999V7.77604Z" fill="url(#paint0_linear_1026_12199)"/>
<path fill-rule="evenodd" clip-rule="evenodd" d="M21.3376 13.221C21.2576 14.6523 20.063 15.7656 18.6298 15.7458H12.1209C11.8228 15.7427 11.5822 15.5009 11.5806 15.2032V8.1948C11.5713 7.94873 11.7139 7.72211 11.9402 7.62415C11.9402 7.62415 12.5388 7.20899 13.7998 7.20899C14.5703 7.20821 15.3264 7.41579 15.9884 7.81035C17.0325 8.42454 17.7715 9.44844 18.0261 10.6325C18.2508 10.5691 18.4832 10.5377 18.7165 10.5384C19.4239 10.5342 20.1023 10.8171 20.5967 11.3233C21.0912 11.829 21.3586 12.5139 21.338 13.221H21.3376ZM10.7682 8.63795C10.9645 11.015 11.1071 13.1829 10.7682 15.5522C10.7565 15.6591 10.6659 15.7404 10.5582 15.7404C10.4502 15.7404 10.36 15.6591 10.3479 15.5522C10.0319 13.2032 10.1695 10.9944 10.3479 8.63795C10.339 8.55748 10.3771 8.47857 10.4459 8.43581C10.5143 8.39305 10.6014 8.39305 10.6706 8.43581C10.739 8.47857 10.7771 8.55748 10.7682 8.63795ZM9.45115 15.5546C9.43482 15.663 9.34153 15.7427 9.2323 15.7427C9.12267 15.7427 9.02938 15.663 9.01305 15.5546C8.77748 13.5277 8.77748 11.4803 9.01305 9.4535C9.0251 9.34077 9.12034 9.25525 9.23346 9.25525C9.34658 9.25525 9.44143 9.34077 9.45387 9.4535C9.71548 11.4788 9.71432 13.5293 9.45115 15.5546V15.5546ZM8.13142 9.24708C8.34522 11.4251 8.4424 13.3765 8.12909 15.5495C8.12909 15.6661 8.03424 15.761 7.91762 15.761C7.801 15.761 7.70615 15.6661 7.70615 15.5495C7.40295 13.4045 7.50479 11.3971 7.70615 9.24708C7.71781 9.13824 7.80955 9.05661 7.91879 9.05661C8.02802 9.05661 8.11976 9.13824 8.13142 9.24708ZM6.80975 15.5573C6.79731 15.6669 6.70479 15.7501 6.594 15.7501C6.48361 15.7501 6.3907 15.6669 6.37904 15.5573C6.1357 13.6661 6.1357 11.7516 6.37904 9.86088C6.37904 9.73999 6.477 9.64203 6.59789 9.64203C6.71879 9.64203 6.81713 9.73999 6.81713 9.86088C7.07564 11.7509 7.07292 13.6677 6.80936 15.5573H6.80975ZM5.48963 11.2852C5.82355 12.7623 5.67311 14.0669 5.47719 15.5724C5.46125 15.6727 5.37457 15.7466 5.27311 15.7466C5.17204 15.7466 5.08536 15.6727 5.06942 15.5724C4.89099 14.0875 4.74328 12.7522 5.05659 11.2848C5.05659 11.1654 5.15377 11.0683 5.27311 11.0683C5.39284 11.0683 5.48963 11.1654 5.48963 11.2852V11.2852ZM4.17262 11.0609C4.47855 12.5742 4.37904 13.8554 4.16485 15.3738C4.13958 15.5981 3.75513 15.6004 3.73453 15.3738C3.54094 13.8784 3.4492 12.5586 3.72676 11.0609C3.73919 10.947 3.8356 10.8607 3.94988 10.8607C4.06456 10.8607 4.16057 10.947 4.17262 11.0609ZM2.84318 11.7944C3.16388 12.7981 3.05426 13.6137 2.83035 14.6426C2.81869 14.7483 2.72928 14.8284 2.62277 14.8284C2.51626 14.8284 2.42685 14.7483 2.4148 14.6426C2.22122 13.6339 2.14269 12.8008 2.39731 11.7944C2.40897 11.6805 2.50538 11.5942 2.62005 11.5942C2.73472 11.5942 2.83074 11.6805 2.84279 11.7944H2.84318Z" fill="white"/>
</g>
<defs>
<linearGradient id="paint0_linear_1026_12199" x1="11.755" y1="0.109375" x2="11.755" y2="22.9665" gradientUnits="userSpaceOnUse">
<stop stop-color="#FF7700"/>
<stop offset="1" stop-color="#FF3200"/>
</linearGradient>
<clipPath id="clip0_1026_12199">
<rect width="22.8571" height="22.8571" fill="white" transform="translate(0.326416 0.109375)"/>
</clipPath>
</defs>
</svg>
