<svg width="24" height="24" viewBox="0 0 24 24" fill="none" xmlns="http://www.w3.org/2000/svg">
<g clip-path="url(#clip0_27_198)">
<g clip-path="url(#clip1_27_198)">
<path d="M13.272 22.4242C18.4725 21.7943 22.5 17.3678 22.5 12C22.5 6.201 17.799 1.5 12 1.5C6.201 1.5 1.5 6.201 1.5 12C1.5 16.9245 4.89 21.057 9.4635 22.1917L9.666 21.333H12.8752L13.272 22.4242Z" fill="#0866FF"/>
<path d="M9.4634 22.1917V15.2092H7.2959V11.9999H9.4634V10.6177C9.4634 7.04317 11.0796 5.38867 14.5866 5.38867C15.2511 5.38867 16.3971 5.51842 16.8681 5.64892V8.55517C16.6199 8.53042 16.1871 8.51767 15.6539 8.51767C13.9319 8.51767 13.2681 9.16867 13.2681 10.8652V11.9999H16.7001L16.1121 15.2084H13.2726V22.4234C11.9991 22.5772 10.7091 22.4984 9.4634 22.1909" fill="white"/>
</g>
</g>
<defs>
<clipPath id="clip0_27_198">
<rect width="24" height="24" fill="white"/>
</clipPath>
<clipPath id="clip1_27_198">
<rect width="24" height="24" fill="white"/>
</clipPath>
</defs>
</svg>
