<svg width="24" height="24" viewBox="0 0 24 24" fill="none" xmlns="http://www.w3.org/2000/svg">
<g clip-path="url(#clip0_27_208)">
<g clip-path="url(#clip1_27_208)">
<g clip-path="url(#clip2_27_208)">
<path d="M22.0702 12.2383C22.0702 11.4936 22.0027 10.7781 21.879 10.0903H11.9902V14.1568H17.6407C17.3932 15.4648 16.6485 16.5718 15.5317 17.3166V19.9611H18.939C20.9242 18.1281 22.0702 15.4363 22.0702 12.2383Z" fill="#4285F4"/>
<path d="M11.9902 22.4999C14.8252 22.4999 17.202 21.5646 18.9389 19.9604L15.5324 17.3174C14.5964 17.9474 13.4032 18.3299 11.9909 18.3299C9.26095 18.3299 6.9412 16.4871 6.11095 14.0054H2.6167V16.7159C4.34395 20.1426 7.88545 22.4999 11.9902 22.4999Z" fill="#34A853"/>
<path d="M6.11024 13.9952C5.89175 13.3526 5.77854 12.6789 5.77499 12.0002C5.77499 11.3027 5.89949 10.6352 6.10949 10.0052V7.29395H2.61674C1.87462 8.75164 1.48857 10.3645 1.49024 12.0002C1.49024 13.6989 1.90049 15.2927 2.61674 16.7064L5.33699 14.5869L6.11024 13.9952Z" fill="#FBBC05"/>
<path d="M11.9902 5.68125C13.5367 5.68125 14.9107 6.21525 16.0087 7.2465L19.0154 4.239C17.1929 2.541 14.8252 1.5 11.9902 1.5C7.88545 1.5 4.34395 3.858 2.6167 7.29375L6.1102 10.005C6.94045 7.5225 9.2602 5.68125 11.9902 5.68125Z" fill="#EA4335"/>
</g>
</g>
</g>
<defs>
<clipPath id="clip0_27_208">
<rect width="24" height="24" fill="white"/>
</clipPath>
<clipPath id="clip1_27_208">
<rect width="24" height="24" fill="white"/>
</clipPath>
<clipPath id="clip2_27_208">
<rect width="24" height="24" fill="white"/>
</clipPath>
</defs>
</svg>
